<svg width="107" height="106" viewBox="0 0 107 106" fill="none" xmlns="http://www.w3.org/2000/svg">
<g clip-path="url(#clip0_19_122)">
<path d="M57.9167 4.41667C60.1452 4.41597 62.2917 5.25763 63.9258 6.77295C65.5598 8.28827 66.5608 10.3652 66.7279 12.5875L66.75 13.25V15.4583C66.75 21.2751 68.4328 26.9593 71.5818 31.8221L72.3327 32.9263L72.5535 33.2443C77.0889 39.6111 79.6677 47.1631 79.9735 54.9743L80 56.5378V83.9167C80.0002 87.2963 78.7089 90.5484 76.3903 93.0073C74.0718 95.4663 70.9012 96.9463 67.5273 97.1446L66.75 97.1667H40.25C36.8703 97.1669 33.6183 95.8756 31.1593 93.557C28.7004 91.2384 27.2204 88.0679 27.0221 84.694L27 83.9167V56.5333C27.0014 48.7166 29.2823 41.0698 33.5632 34.5295L34.4465 33.2398L34.6673 32.9351C38.2995 27.8313 40.2508 21.7226 40.25 15.4583V13.25C40.2493 11.0215 41.091 8.875 42.6063 7.24092C44.1216 5.60683 46.1986 4.6059 48.4208 4.43876L49.0833 4.41667H57.9167ZM59.5155 26.5H47.4845C46.4063 30.1506 44.7992 33.6236 42.7145 36.8085L41.8577 38.0628L41.6368 38.3676C38.1361 43.2859 36.1315 49.1111 35.8643 55.1421V87.1556C38.2021 87.4058 40.958 87.1056 44.0778 87.1556C46.5147 87.1049 51.7333 87.1556 54.0889 87.1556C57.9472 87.1556 57.6222 87.1556 58.2111 87.1556C60.5667 87.1556 60.7006 87.1997 62.9222 87.1556C63.9251 87.1763 64.1 87.1556 65.2778 87.1556C66.1415 87.1556 67.0444 87.1556 67.6333 87.1556C68.8111 87.1556 69.9889 87.1556 71.1667 87.1556V56.5333C71.1667 50.4825 69.4177 44.5774 66.1449 39.5203L65.1379 38.054C62.6376 34.5402 60.7377 30.6358 59.5155 26.5Z" fill="#BBBBBB"/>
</g>
<defs>
<clipPath id="clip0_19_122">
<rect width="106" height="106" fill="white" transform="translate(0.5)"/>
</clipPath>
</defs>
</svg>
