<svg xmlns="http://www.w3.org/2000/svg" xmlns:xlink="http://www.w3.org/1999/xlink" width="500" zoomAndPan="magnify" viewBox="0 0 375 374.999991" height="500" preserveAspectRatio="xMidYMid meet" version="1.0"><defs><g/><clipPath id="6faa1807f3"><path d="M 90 164 L 132 164 L 132 205 L 90 205 Z M 90 164 " clip-rule="nonzero"/></clipPath><clipPath id="a95031e4fb"><path d="M 112.683594 154.324219 L 136.730469 191.46875 L 101.476562 214.292969 L 77.425781 177.148438 Z M 112.683594 154.324219 " clip-rule="nonzero"/></clipPath><clipPath id="1e0f87aa32"><path d="M 126.738281 145.226562 L 158.9375 194.960938 L 109.199219 227.160156 L 77 177.425781 Z M 126.738281 145.226562 " clip-rule="nonzero"/></clipPath><clipPath id="60a23ad7dd"><path d="M 117.886719 150.953125 L 144.230469 191.644531 L 103.484375 218.023438 L 77.140625 177.332031 Z M 117.886719 150.953125 " clip-rule="nonzero"/></clipPath><clipPath id="2543280517"><path d="M 117.886719 150.953125 L 144.230469 191.644531 L 103.511719 218.007812 L 77.167969 177.316406 Z M 117.886719 150.953125 " clip-rule="nonzero"/></clipPath><clipPath id="1b872bf6dd"><path d="M 136 183 L 137 183 L 137 201 L 136 201 Z M 136 183 " clip-rule="nonzero"/></clipPath><clipPath id="7815a2c3b9"><path d="M 112.683594 154.324219 L 136.730469 191.46875 L 101.476562 214.292969 L 77.425781 177.148438 Z M 112.683594 154.324219 " clip-rule="nonzero"/></clipPath><clipPath id="892134b2ad"><path d="M 126.738281 145.226562 L 158.9375 194.960938 L 109.199219 227.160156 L 77 177.425781 Z M 126.738281 145.226562 " clip-rule="nonzero"/></clipPath><clipPath id="b0a2f4325e"><path d="M 125 186 L 128 186 L 128 190 L 125 190 Z M 125 186 " clip-rule="nonzero"/></clipPath><clipPath id="832957a1fb"><path d="M 112.683594 154.324219 L 136.730469 191.46875 L 101.476562 214.292969 L 77.425781 177.148438 Z M 112.683594 154.324219 " clip-rule="nonzero"/></clipPath><clipPath id="b1b0f22548"><path d="M 126.738281 145.226562 L 158.9375 194.960938 L 109.199219 227.160156 L 77 177.425781 Z M 126.738281 145.226562 " clip-rule="nonzero"/></clipPath><clipPath id="59c5d7afe9"><path d="M 86 182 L 90 182 L 90 186 L 86 186 Z M 86 182 " clip-rule="nonzero"/></clipPath><clipPath id="5db299f848"><path d="M 112.683594 154.324219 L 136.730469 191.46875 L 101.476562 214.292969 L 77.425781 177.148438 Z M 112.683594 154.324219 " clip-rule="nonzero"/></clipPath><clipPath id="125d611f00"><path d="M 126.738281 145.226562 L 158.9375 194.960938 L 109.199219 227.160156 L 77 177.425781 Z M 126.738281 145.226562 " clip-rule="nonzero"/></clipPath><clipPath id="78e8142ccd"><path d="M 245 166 L 283 166 L 283 204 L 245 204 Z M 245 166 " clip-rule="nonzero"/></clipPath><clipPath id="0ba5c15b56"><path d="M 265.542969 215.078125 L 236.941406 181.316406 L 268.988281 154.167969 L 297.589844 187.929688 Z M 265.542969 215.078125 " clip-rule="nonzero"/></clipPath><clipPath id="fc5a522416"><path d="M 252.769531 225.898438 L 214.472656 180.691406 L 259.679688 142.394531 L 297.980469 187.601562 Z M 252.769531 225.898438 " clip-rule="nonzero"/></clipPath><clipPath id="74d66ef1c8"><path d="M 260.816406 219.085938 L 229.480469 182.097656 L 266.519531 150.722656 L 297.851562 187.710938 Z M 260.816406 219.085938 " clip-rule="nonzero"/></clipPath><clipPath id="9d221dea2e"><path d="M 260.816406 219.085938 L 229.480469 182.097656 L 266.492188 150.746094 L 297.828125 187.730469 Z M 260.816406 219.085938 " clip-rule="nonzero"/></clipPath><clipPath id="8c82ad9242"><path d="M 236 174 L 237 174 L 237 190 L 236 190 Z M 236 174 " clip-rule="nonzero"/></clipPath><clipPath id="3cd6e8b6c3"><path d="M 265.542969 215.078125 L 236.941406 181.316406 L 268.988281 154.167969 L 297.589844 187.929688 Z M 265.542969 215.078125 " clip-rule="nonzero"/></clipPath><clipPath id="3c8c2c6593"><path d="M 252.769531 225.898438 L 214.472656 180.691406 L 259.679688 142.394531 L 297.980469 187.601562 Z M 252.769531 225.898438 " clip-rule="nonzero"/></clipPath><clipPath id="948c0e4521"><path d="M 246 182 L 249 182 L 249 185 L 246 185 Z M 246 182 " clip-rule="nonzero"/></clipPath><clipPath id="425ea64182"><path d="M 265.542969 215.078125 L 236.941406 181.316406 L 268.988281 154.167969 L 297.589844 187.929688 Z M 265.542969 215.078125 " clip-rule="nonzero"/></clipPath><clipPath id="a46fcdb78f"><path d="M 252.769531 225.898438 L 214.472656 180.691406 L 259.679688 142.394531 L 297.980469 187.601562 Z M 252.769531 225.898438 " clip-rule="nonzero"/></clipPath><clipPath id="81b2d8bd6a"><path d="M 284 180 L 289 180 L 289 185 L 284 185 Z M 284 180 " clip-rule="nonzero"/></clipPath><clipPath id="7b6eed1d8f"><path d="M 265.542969 215.078125 L 236.941406 181.316406 L 268.988281 154.167969 L 297.589844 187.929688 Z M 265.542969 215.078125 " clip-rule="nonzero"/></clipPath><clipPath id="70d703e4af"><path d="M 252.769531 225.898438 L 214.472656 180.691406 L 259.679688 142.394531 L 297.980469 187.601562 Z M 252.769531 225.898438 " clip-rule="nonzero"/></clipPath><clipPath id="de2a7f4cf3"><path d="M 136 136 L 236 136 L 236 239 L 136 239 Z M 136 136 " clip-rule="nonzero"/></clipPath><clipPath id="5afec457f3"><path d="M 175.472656 117.046875 L 258.054688 175.628906 L 199.476562 258.210938 L 116.890625 199.632812 Z M 175.472656 117.046875 " clip-rule="nonzero"/></clipPath><clipPath id="0dc6dbf9e1"><path d="M 175.472656 117.046875 L 258.054688 175.628906 L 199.476562 258.210938 L 116.890625 199.632812 Z M 175.472656 117.046875 " clip-rule="nonzero"/></clipPath><clipPath id="bca0f61c9d"><path d="M 178 162.179688 L 202 162.179688 L 202 165 L 178 165 Z M 178 162.179688 " clip-rule="nonzero"/></clipPath><clipPath id="c66893c3c7"><path d="M 189 196 L 220.914062 196 L 220.914062 213 L 189 213 Z M 189 196 " clip-rule="nonzero"/></clipPath><clipPath id="3b50cec6c8"><path d="M 147.949219 164.40625 L 162.882812 164.40625 L 162.882812 178.15625 L 147.949219 178.15625 Z M 147.949219 164.40625 " clip-rule="nonzero"/></clipPath><clipPath id="cd22800124"><path d="M 149 149.65625 L 177.949219 149.65625 L 177.949219 178.15625 L 149 178.15625 Z M 149 149.65625 " clip-rule="nonzero"/></clipPath><clipPath id="fd9511c3de"><path d="M 179.171875 173.453125 L 200.242188 173.453125 L 200.242188 194.523438 L 179.171875 194.523438 Z M 179.171875 173.453125 " clip-rule="nonzero"/></clipPath><clipPath id="f7bfca2887"><path d="M 189.707031 173.453125 C 183.890625 173.453125 179.171875 178.171875 179.171875 183.988281 C 179.171875 189.808594 183.890625 194.523438 189.707031 194.523438 C 195.527344 194.523438 200.242188 189.808594 200.242188 183.988281 C 200.242188 178.171875 195.527344 173.453125 189.707031 173.453125 Z M 189.707031 173.453125 " clip-rule="nonzero"/></clipPath><clipPath id="08a5d6ebf6"><path d="M 184 177 L 197 177 L 197 191 L 184 191 Z M 184 177 " clip-rule="nonzero"/></clipPath><clipPath id="3151316f69"><path d="M 190.082031 174.609375 L 199.664062 183.019531 L 191.257812 192.601562 L 181.671875 184.191406 Z M 190.082031 174.609375 " clip-rule="nonzero"/></clipPath><clipPath id="8bd93b97ec"><path d="M 190.082031 174.609375 L 199.664062 183.019531 L 191.257812 192.601562 L 181.671875 184.191406 Z M 190.082031 174.609375 " clip-rule="nonzero"/></clipPath><clipPath id="ba96494dfc"><path d="M 182 178 L 193 178 L 193 189 L 182 189 Z M 182 178 " clip-rule="nonzero"/></clipPath><clipPath id="6c1936caa7"><path d="M 190.867188 174.058594 L 195.972656 184.082031 L 185.949219 189.1875 L 180.84375 179.164062 Z M 190.867188 174.058594 " clip-rule="nonzero"/></clipPath><clipPath id="bede9e23c7"><path d="M 180.109375 177.4375 L 192.988281 173.394531 L 196.804688 185.558594 L 183.925781 189.601562 Z M 180.109375 177.4375 " clip-rule="nonzero"/></clipPath><clipPath id="c79f3b0ad4"><path d="M 180.808594 179.664062 L 191.066406 176.445312 L 194.289062 186.71875 L 184.03125 189.9375 Z M 180.808594 179.664062 " clip-rule="nonzero"/></clipPath><clipPath id="254df2b8e5"><path d="M 180.808594 179.664062 L 191.066406 176.445312 L 194.289062 186.710938 L 184.027344 189.929688 Z M 180.808594 179.664062 " clip-rule="nonzero"/></clipPath><clipPath id="bcca53be1c"><path d="M 189 174 L 194 174 L 194 179 L 189 179 Z M 189 174 " clip-rule="nonzero"/></clipPath><clipPath id="fddd63e321"><path d="M 190.867188 174.058594 L 195.972656 184.082031 L 185.949219 189.1875 L 180.84375 179.164062 Z M 190.867188 174.058594 " clip-rule="nonzero"/></clipPath><clipPath id="5f69c7a5a0"><path d="M 180.109375 177.4375 L 192.988281 173.394531 L 196.804688 185.558594 L 183.925781 189.601562 Z M 180.109375 177.4375 " clip-rule="nonzero"/></clipPath><clipPath id="3d8326a08b"><path d="M 188 179 L 190 179 L 190 181 L 188 181 Z M 188 179 " clip-rule="nonzero"/></clipPath><clipPath id="51803d5947"><path d="M 190.867188 174.058594 L 195.972656 184.082031 L 185.949219 189.1875 L 180.84375 179.164062 Z M 190.867188 174.058594 " clip-rule="nonzero"/></clipPath><clipPath id="2e8d786bf0"><path d="M 180.109375 177.4375 L 192.988281 173.394531 L 196.804688 185.558594 L 183.925781 189.601562 Z M 180.109375 177.4375 " clip-rule="nonzero"/></clipPath><clipPath id="6038068ad3"><path d="M 185 187 L 187 187 L 187 189 L 185 189 Z M 185 187 " clip-rule="nonzero"/></clipPath><clipPath id="f3a19df955"><path d="M 190.867188 174.058594 L 195.972656 184.082031 L 185.949219 189.1875 L 180.84375 179.164062 Z M 190.867188 174.058594 " clip-rule="nonzero"/></clipPath><clipPath id="e64bc2ee52"><path d="M 180.109375 177.4375 L 192.988281 173.394531 L 196.804688 185.558594 L 183.925781 189.601562 Z M 180.109375 177.4375 " clip-rule="nonzero"/></clipPath></defs><g clip-path="url(#6faa1807f3)"><g clip-path="url(#a95031e4fb)"><g clip-path="url(#1e0f87aa32)"><g clip-path="url(#60a23ad7dd)"><g clip-path="url(#2543280517)"><path fill="#ffffff" d="M 131.03125 171.316406 C 111.070312 184.007812 110.53125 183.890625 97.511719 164.144531 C 110.203125 184.105469 110.085938 184.644531 90.339844 197.660156 C 110.300781 184.972656 110.839844 185.085938 123.855469 204.835938 C 111.167969 184.875 111.285156 184.335938 131.03125 171.316406 " fill-opacity="1" fill-rule="nonzero"/></g></g></g></g></g><g clip-path="url(#1b872bf6dd)"><g clip-path="url(#7815a2c3b9)"><g clip-path="url(#892134b2ad)"><path fill="#ffffff" d="M 153.457031 186.5625 C 145.089844 191.882812 144.863281 191.832031 139.410156 183.558594 C 144.726562 191.921875 144.679688 192.148438 136.402344 197.601562 C 144.769531 192.285156 144.996094 192.332031 150.449219 200.609375 C 145.132812 192.246094 145.179688 192.019531 153.457031 186.5625 " fill-opacity="1" fill-rule="nonzero"/></g></g></g><g clip-path="url(#b0a2f4325e)"><g clip-path="url(#832957a1fb)"><g clip-path="url(#b1b0f22548)"><path fill="#ffffff" d="M 125.339844 188.585938 C 125.699219 189.140625 126.4375 189.300781 126.996094 188.941406 C 127.550781 188.582031 127.707031 187.839844 127.347656 187.285156 C 126.988281 186.730469 126.25 186.574219 125.691406 186.933594 C 125.136719 187.292969 124.980469 188.03125 125.339844 188.585938 " fill-opacity="1" fill-rule="nonzero"/></g></g></g><g clip-path="url(#59c5d7afe9)"><g clip-path="url(#5db299f848)"><g clip-path="url(#125d611f00)"><path fill="#ffffff" d="M 89.394531 182.867188 C 88.855469 182.035156 87.746094 181.796875 86.914062 182.335938 C 86.082031 182.875 85.84375 183.984375 86.382812 184.816406 C 86.921875 185.648438 88.03125 185.886719 88.863281 185.347656 C 89.695312 184.808594 89.933594 183.699219 89.394531 182.867188 " fill-opacity="1" fill-rule="nonzero"/></g></g></g><g clip-path="url(#78e8142ccd)"><g clip-path="url(#0ba5c15b56)"><g clip-path="url(#fc5a522416)"><g clip-path="url(#74d66ef1c8)"><g clip-path="url(#9d221dea2e)"><path fill="#ffffff" d="M 245.175781 200.570312 C 263.347656 185.433594 263.898438 185.476562 279.332031 203.398438 C 264.195312 185.226562 264.242188 184.675781 282.160156 169.238281 C 263.988281 184.375 263.4375 184.332031 248 166.410156 C 263.140625 184.582031 263.09375 185.132812 245.175781 200.570312 " fill-opacity="1" fill-rule="nonzero"/></g></g></g></g></g><g clip-path="url(#8c82ad9242)"><g clip-path="url(#3cd6e8b6c3)"><g clip-path="url(#3c8c2c6593)"><path fill="#ffffff" d="M 220.984375 188.320312 C 228.597656 181.976562 228.828125 181.996094 235.296875 189.503906 C 228.953125 181.886719 228.972656 181.65625 236.480469 175.1875 C 228.867188 181.53125 228.636719 181.511719 222.167969 174.003906 C 228.511719 181.621094 228.492188 181.851562 220.984375 188.320312 " fill-opacity="1" fill-rule="nonzero"/></g></g></g><g clip-path="url(#948c0e4521)"><g clip-path="url(#425ea64182)"><g clip-path="url(#a46fcdb78f)"><path fill="#ffffff" d="M 248.609375 182.714844 C 248.183594 182.210938 247.425781 182.148438 246.921875 182.574219 C 246.417969 183.003906 246.355469 183.757812 246.78125 184.261719 C 247.210938 184.765625 247.964844 184.828125 248.46875 184.402344 C 248.972656 183.972656 249.035156 183.21875 248.609375 182.714844 " fill-opacity="1" fill-rule="nonzero"/></g></g></g><g clip-path="url(#81b2d8bd6a)"><g clip-path="url(#7b6eed1d8f)"><g clip-path="url(#70d703e4af)"><path fill="#ffffff" d="M 284.988281 183.789062 C 285.628906 184.546875 286.761719 184.640625 287.519531 184 C 288.277344 183.359375 288.371094 182.226562 287.730469 181.46875 C 287.089844 180.714844 285.957031 180.621094 285.199219 181.261719 C 284.441406 181.902344 284.347656 183.035156 284.988281 183.789062 " fill-opacity="1" fill-rule="nonzero"/></g></g></g><g fill="#3c3b3c" fill-opacity="1"><g transform="translate(112.652532, 235.760743)"><g><path d="M 11.9375 3.046875 L 16.546875 7.65625 C 17.515625 8.625 18.09375 9.585938 18.28125 10.546875 C 18.46875 11.503906 18.195312 12.34375 17.46875 13.0625 C 16.757812 13.78125 15.925781 14.039062 14.96875 13.84375 C 14.019531 13.65625 13.0625 13.078125 12.09375 12.109375 L 4.640625 4.640625 C 2.304688 2.304688 2.304688 -0.0234375 4.640625 -2.359375 L 18.484375 -16.171875 C 20.816406 -18.503906 23.039062 -18.609375 25.15625 -16.484375 C 27.269531 -14.367188 27.160156 -12.144531 24.828125 -9.8125 Z M 11.9375 3.046875 "/></g></g></g><g fill="#3c3b3c" fill-opacity="1"><g transform="translate(136.513656, 257.825227)"><g><path d="M 4.09375 2.390625 C 2.976562 1.867188 2.226562 1.140625 1.84375 0.203125 C 1.457031 -0.722656 1.523438 -1.742188 2.046875 -2.859375 C 2.148438 -3.078125 2.269531 -3.300781 2.40625 -3.53125 C 2.550781 -3.757812 2.710938 -3.976562 2.890625 -4.1875 L 16.703125 -19.21875 C 17.710938 -20.34375 18.851562 -21.085938 20.125 -21.453125 C 21.394531 -21.828125 22.648438 -21.726562 23.890625 -21.15625 L 25.9375 -20.21875 C 27.1875 -19.632812 28.078125 -18.742188 28.609375 -17.546875 C 29.148438 -16.347656 29.320312 -14.992188 29.125 -13.484375 L 26.640625 6.78125 C 26.597656 7.050781 26.535156 7.3125 26.453125 7.5625 C 26.378906 7.820312 26.289062 8.0625 26.1875 8.28125 C 25.664062 9.394531 24.925781 10.109375 23.96875 10.421875 C 23.007812 10.734375 21.96875 10.632812 20.84375 10.125 C 19.5 9.5 18.660156 8.703125 18.328125 7.734375 C 17.992188 6.765625 17.96875 5.53125 18.25 4.03125 L 18.59375 2.09375 L 11.65625 -1.109375 L 10.40625 0.40625 C 9.445312 1.59375 8.492188 2.375 7.546875 2.75 C 6.609375 3.132812 5.457031 3.015625 4.09375 2.390625 Z M 15.78125 -6.15625 L 19.765625 -4.3125 L 21.109375 -11.734375 C 21.148438 -11.960938 21.195312 -12.195312 21.25 -12.4375 C 21.3125 -12.6875 21.367188 -12.914062 21.421875 -13.125 C 21.304688 -12.945312 21.171875 -12.757812 21.015625 -12.5625 C 20.859375 -12.363281 20.707031 -12.171875 20.5625 -11.984375 Z M 15.78125 -6.15625 "/></g></g></g><g fill="#3c3b3c" fill-opacity="1"><g transform="translate(172.026817, 271.927452)"><g><path d="M 23.078125 -28.015625 C 26.066406 -27.847656 27.503906 -26.722656 27.390625 -24.640625 C 27.335938 -23.617188 26.882812 -22.859375 26.03125 -22.359375 C 25.175781 -21.867188 24.160156 -21.65625 22.984375 -21.71875 L 19.015625 -21.9375 L 18.015625 -3.53125 C 17.835938 -0.238281 16.253906 1.328125 13.265625 1.171875 C 10.273438 1.003906 8.867188 -0.722656 9.046875 -4.015625 L 10.046875 -22.421875 L 6.59375 -22.59375 C 5.125 -22.675781 3.988281 -23.007812 3.1875 -23.59375 C 2.382812 -24.1875 2.007812 -24.992188 2.0625 -26.015625 C 2.113281 -27.023438 2.570312 -27.773438 3.4375 -28.265625 C 4.300781 -28.753906 5.46875 -28.957031 6.9375 -28.875 Z M 23.078125 -28.015625 "/></g></g></g><g fill="#3c3b3c" fill-opacity="1"><g transform="translate(208.912098, 272.005303)"><g><path d="M 11.328125 -34.484375 C 14.171875 -35.421875 15.921875 -34.894531 16.578125 -32.90625 C 16.898438 -31.925781 16.753906 -31.050781 16.140625 -30.28125 C 15.523438 -29.507812 14.65625 -28.941406 13.53125 -28.578125 L 9.765625 -27.34375 L 15.515625 -9.828125 C 16.546875 -6.691406 15.632812 -4.65625 12.78125 -3.71875 C 9.945312 -2.78125 8.015625 -3.878906 6.984375 -7.015625 L 1.234375 -24.53125 L -2.046875 -23.453125 C -3.453125 -22.992188 -4.632812 -22.890625 -5.59375 -23.140625 C -6.550781 -23.390625 -7.191406 -24.003906 -7.515625 -24.984375 C -7.835938 -25.953125 -7.6875 -26.820312 -7.0625 -27.59375 C -6.4375 -28.363281 -5.421875 -28.976562 -4.015625 -29.4375 Z M 11.328125 -34.484375 "/></g></g></g><g fill="#3c3b3c" fill-opacity="1"><g transform="translate(243.194115, 258.686405)"><g><path d="M 2.390625 -35.5625 C 3.710938 -33.925781 3.148438 -32.113281 0.703125 -30.125 L -6.0625 -24.609375 L -2.765625 -20.5625 L 2.46875 -24.828125 C 3.707031 -25.835938 4.738281 -26.332031 5.5625 -26.3125 C 6.382812 -26.289062 7.117188 -25.882812 7.765625 -25.09375 C 8.410156 -24.300781 8.660156 -23.5 8.515625 -22.6875 C 8.367188 -21.875 7.675781 -20.960938 6.4375 -19.953125 L 1.203125 -15.6875 L 4.4375 -11.71875 L 11.203125 -17.234375 C 13.648438 -19.222656 15.535156 -19.398438 16.859375 -17.765625 C 18.179688 -16.140625 17.617188 -14.332031 15.171875 -12.34375 L 5.265625 -4.28125 C 2.710938 -2.195312 0.394531 -2.4375 -1.6875 -5 L -13.890625 -20 C -15.960938 -22.550781 -15.722656 -24.867188 -13.171875 -26.953125 L -3.265625 -35.015625 C -0.816406 -37.003906 1.066406 -37.1875 2.390625 -35.5625 Z M 2.390625 -35.5625 "/></g></g></g><g clip-path="url(#de2a7f4cf3)"><g clip-path="url(#5afec457f3)"><g clip-path="url(#0dc6dbf9e1)"><path fill="#ffffff" d="M 216.71875 146.308594 C 217.710938 147.011719 218.667969 147.742188 219.589844 148.503906 C 200.9375 137.347656 176.546875 142.257812 163.761719 160.28125 C 150.328125 179.21875 154.789062 205.460938 173.726562 218.894531 C 192.664062 232.328125 218.90625 227.863281 232.339844 208.925781 C 233.339844 207.515625 234.238281 206.0625 235.042969 204.578125 C 233.523438 208.796875 231.417969 212.886719 228.695312 216.722656 C 212.554688 239.476562 181.027344 244.835938 158.277344 228.699219 C 135.523438 212.5625 130.164062 181.035156 146.300781 158.28125 C 162.441406 135.53125 193.96875 130.167969 216.71875 146.308594 " fill-opacity="1" fill-rule="evenodd"/></g></g></g><path fill="#3c3b3c" d="M 177.9375 204.164062 C 177.820312 204.542969 177.65625 204.898438 177.449219 205.234375 C 177.167969 205.640625 177.03125 206.089844 177.03125 206.582031 C 177.03125 207.074219 177.167969 207.519531 177.449219 207.925781 C 177.667969 208.265625 177.832031 208.628906 177.945312 209.019531 C 178.0625 209.40625 178.117188 209.800781 178.117188 210.207031 C 178.117188 210.609375 178.0625 211.003906 177.945312 211.394531 C 177.832031 211.78125 177.667969 212.144531 177.449219 212.484375 C 177.367188 212.621094 177.300781 212.738281 177.238281 212.855469 C 178.96875 212.511719 180.292969 210.652344 180.292969 208.398438 C 180.3125 207.96875 180.273438 207.546875 180.175781 207.132812 C 180.078125 206.714844 179.925781 206.320312 179.71875 205.945312 C 179.507812 205.574219 179.253906 205.234375 178.949219 204.933594 C 178.648438 204.628906 178.3125 204.375 177.9375 204.164062 Z M 177.9375 204.164062 " fill-opacity="1" fill-rule="nonzero"/><path fill="#3c3b3c" d="M 197.511719 184.835938 C 197.511719 185.3125 197.464844 185.785156 197.371094 186.25 C 197.277344 186.71875 197.140625 187.171875 196.960938 187.609375 C 196.777344 188.050781 196.554688 188.46875 196.289062 188.863281 C 196.023438 189.257812 195.722656 189.625 195.386719 189.960938 C 195.050781 190.300781 194.683594 190.597656 194.289062 190.863281 C 193.894531 191.128906 193.476562 191.351562 193.035156 191.535156 C 192.597656 191.714844 192.144531 191.855469 191.675781 191.945312 C 191.207031 192.039062 190.738281 192.085938 190.261719 192.085938 C 189.785156 192.085938 189.3125 192.039062 188.847656 191.945312 C 188.378906 191.855469 187.925781 191.714844 187.488281 191.535156 C 187.046875 191.351562 186.628906 191.128906 186.234375 190.863281 C 185.835938 190.597656 185.472656 190.300781 185.136719 189.960938 C 184.796875 189.625 184.496094 189.257812 184.234375 188.863281 C 183.96875 188.46875 183.746094 188.050781 183.5625 187.609375 C 183.382812 187.171875 183.242188 186.71875 183.152344 186.25 C 183.058594 185.785156 183.011719 185.3125 183.011719 184.835938 C 183.011719 184.359375 183.058594 183.886719 183.152344 183.421875 C 183.242188 182.953125 183.382812 182.5 183.5625 182.0625 C 183.746094 181.621094 183.96875 181.203125 184.234375 180.808594 C 184.496094 180.414062 184.796875 180.046875 185.136719 179.710938 C 185.472656 179.371094 185.835938 179.074219 186.234375 178.808594 C 186.628906 178.542969 187.046875 178.320312 187.488281 178.136719 C 187.925781 177.957031 188.378906 177.820312 188.847656 177.726562 C 189.3125 177.632812 189.785156 177.585938 190.261719 177.585938 C 190.738281 177.585938 191.207031 177.632812 191.675781 177.726562 C 192.144531 177.820312 192.597656 177.957031 193.035156 178.136719 C 193.476562 178.320312 193.894531 178.542969 194.289062 178.808594 C 194.683594 179.074219 195.050781 179.371094 195.386719 179.710938 C 195.722656 180.046875 196.023438 180.414062 196.289062 180.808594 C 196.554688 181.203125 196.777344 181.621094 196.960938 182.0625 C 197.140625 182.5 197.277344 182.953125 197.371094 183.421875 C 197.464844 183.886719 197.511719 184.359375 197.511719 184.835938 Z M 197.511719 184.835938 " fill-opacity="1" fill-rule="nonzero"/><path fill="#3c3b3c" d="M 175.21875 206.585938 C 175.203125 205.753906 175.425781 204.992188 175.890625 204.300781 C 175.96875 204.175781 176.035156 204.058594 176.097656 203.9375 C 174.367188 204.285156 173.042969 206.140625 173.042969 208.398438 C 173.023438 208.824219 173.0625 209.246094 173.160156 209.664062 C 173.257812 210.082031 173.410156 210.476562 173.621094 210.847656 C 173.828125 211.222656 174.082031 211.5625 174.386719 211.863281 C 174.6875 212.167969 175.027344 212.421875 175.398438 212.628906 C 175.519531 212.25 175.679688 211.890625 175.890625 211.550781 C 176.183594 211.152344 176.324219 210.707031 176.304688 210.210938 C 176.324219 209.710938 176.183594 209.261719 175.890625 208.859375 C 175.425781 208.171875 175.203125 207.414062 175.21875 206.585938 Z M 175.21875 206.585938 " fill-opacity="1" fill-rule="nonzero"/><g clip-path="url(#bca0f61c9d)"><path fill="#3c3b3c" d="M 201.445312 162.90625 C 201.402344 162.695312 201.296875 162.519531 201.128906 162.382812 C 200.960938 162.25 200.769531 162.179688 200.554688 162.179688 L 179.964844 162.179688 C 179.75 162.179688 179.558594 162.25 179.394531 162.382812 C 179.226562 162.519531 179.121094 162.695312 179.078125 162.90625 L 178.679688 164.898438 L 201.84375 164.898438 Z M 201.445312 162.90625 " fill-opacity="1" fill-rule="nonzero"/></g><path fill="#3c3b3c" d="M 206.03125 170.019531 C 206.210938 169.808594 206.28125 169.5625 206.238281 169.285156 L 205.929688 167.472656 C 205.898438 167.253906 205.796875 167.070312 205.628906 166.925781 C 205.457031 166.78125 205.265625 166.710938 205.042969 166.710938 L 175.480469 166.710938 C 175.257812 166.710938 175.0625 166.78125 174.894531 166.925781 C 174.726562 167.070312 174.625 167.253906 174.59375 167.472656 L 174.285156 169.285156 C 174.261719 169.417969 174.269531 169.546875 174.304688 169.675781 C 174.34375 169.800781 174.402344 169.917969 174.488281 170.019531 C 174.578125 170.121094 174.679688 170.199219 174.800781 170.253906 C 174.921875 170.308594 175.046875 170.335938 175.183594 170.335938 L 205.339844 170.335938 C 205.621094 170.335938 205.847656 170.230469 206.03125 170.019531 Z M 206.03125 170.019531 " fill-opacity="1" fill-rule="nonzero"/><path fill="#3c3b3c" d="M 187.570312 203.242188 C 187.679688 203.257812 187.777344 203.304688 187.886719 203.332031 C 187.664062 202.3125 187.546875 201.285156 187.542969 200.242188 C 187.546875 198.582031 187.828125 196.972656 188.386719 195.410156 C 188.449219 195.230469 188.558594 195.085938 188.714844 194.972656 C 188.871094 194.859375 189.046875 194.804688 189.238281 194.804688 L 203.582031 194.804688 L 204.714844 172.148438 L 175.808594 172.148438 L 177.300781 202.097656 C 178.226562 202.257812 179.058594 202.628906 179.796875 203.210938 C 180.53125 203.792969 181.085938 204.515625 181.453125 205.378906 C 181.78125 205.03125 182.144531 204.71875 182.539062 204.445312 C 183.265625 203.921875 184.066406 203.554688 184.9375 203.347656 C 185.808594 203.136719 186.683594 203.101562 187.570312 203.242188 Z M 181.199219 184.835938 C 181.199219 184.242188 181.257812 183.652344 181.375 183.066406 C 181.488281 182.484375 181.660156 181.917969 181.890625 181.367188 C 182.117188 180.816406 182.394531 180.296875 182.726562 179.800781 C 183.058594 179.304688 183.433594 178.847656 183.851562 178.429688 C 184.273438 178.007812 184.730469 177.632812 185.226562 177.300781 C 185.722656 176.96875 186.242188 176.691406 186.792969 176.464844 C 187.34375 176.234375 187.910156 176.0625 188.492188 175.949219 C 189.078125 175.832031 189.667969 175.773438 190.261719 175.773438 C 190.855469 175.773438 191.445312 175.832031 192.03125 175.949219 C 192.613281 176.0625 193.179688 176.234375 193.730469 176.464844 C 194.277344 176.691406 194.800781 176.96875 195.296875 177.300781 C 195.789062 177.632812 196.25 178.007812 196.667969 178.429688 C 197.089844 178.847656 197.464844 179.304688 197.796875 179.800781 C 198.128906 180.296875 198.40625 180.816406 198.632812 181.367188 C 198.863281 181.917969 199.035156 182.484375 199.148438 183.066406 C 199.265625 183.652344 199.324219 184.242188 199.324219 184.835938 C 199.324219 185.429688 199.265625 186.019531 199.148438 186.605469 C 199.035156 187.1875 198.863281 187.753906 198.632812 188.304688 C 198.40625 188.855469 198.128906 189.375 197.796875 189.871094 C 197.464844 190.367188 197.089844 190.824219 196.667969 191.242188 C 196.25 191.664062 195.789062 192.039062 195.296875 192.371094 C 194.800781 192.703125 194.277344 192.980469 193.730469 193.207031 C 193.179688 193.4375 192.613281 193.609375 192.03125 193.722656 C 191.445312 193.839844 190.855469 193.898438 190.261719 193.898438 C 189.667969 193.898438 189.078125 193.839844 188.496094 193.722656 C 187.910156 193.605469 187.34375 193.433594 186.796875 193.207031 C 186.246094 192.976562 185.722656 192.699219 185.230469 192.367188 C 184.734375 192.039062 184.277344 191.660156 183.855469 191.242188 C 183.4375 190.820312 183.058594 190.363281 182.730469 189.867188 C 182.398438 189.375 182.121094 188.851562 181.890625 188.300781 C 181.664062 187.753906 181.492188 187.1875 181.375 186.601562 C 181.257812 186.019531 181.199219 185.429688 181.199219 184.835938 Z M 181.199219 184.835938 " fill-opacity="1" fill-rule="nonzero"/><g clip-path="url(#c66893c3c7)"><path fill="#3c3b3c" d="M 216.996094 198.429688 L 215.34375 198.429688 C 215.132812 198.429688 214.941406 198.363281 214.773438 198.230469 C 214.609375 198.09375 214.503906 197.921875 214.457031 197.714844 C 214.367188 197.296875 214.277344 196.933594 214.1875 196.617188 L 189.898438 196.617188 C 189.507812 197.894531 189.328125 199.199219 189.359375 200.53125 C 189.386719 201.867188 189.625 203.160156 190.070312 204.417969 C 190.363281 204.671875 190.625 204.957031 190.851562 205.269531 C 191.328125 205.957031 191.605469 206.714844 191.683594 207.546875 C 191.984375 207.972656 192.304688 208.375 192.65625 208.761719 C 193.003906 209.148438 193.375 209.507812 193.765625 209.847656 C 194.160156 210.1875 194.574219 210.503906 195.003906 210.792969 C 195.4375 211.082031 195.882812 211.34375 196.347656 211.574219 C 196.8125 211.808594 197.289062 212.015625 197.777344 212.1875 C 198.265625 212.363281 198.765625 212.507812 199.273438 212.621094 C 199.777344 212.734375 200.289062 212.816406 200.808594 212.867188 C 201.324219 212.917969 201.84375 212.9375 202.363281 212.925781 C 202.882812 212.910156 203.398438 212.867188 203.910156 212.789062 C 204.425781 212.714844 204.933594 212.605469 205.433594 212.464844 C 205.933594 212.328125 206.425781 212.15625 206.902344 211.957031 C 207.382812 211.757812 207.847656 211.53125 208.300781 211.273438 C 208.753906 211.015625 209.1875 210.730469 209.601562 210.421875 C 210.019531 210.109375 210.414062 209.777344 210.789062 209.417969 C 211.164062 209.058594 211.519531 208.675781 211.847656 208.273438 C 212.175781 207.871094 212.476562 207.449219 212.753906 207.011719 C 212.933594 206.730469 213.191406 206.589844 213.523438 206.585938 L 216.996094 206.585938 C 217.261719 206.585938 217.527344 206.558594 217.789062 206.507812 C 218.054688 206.453125 218.308594 206.378906 218.554688 206.273438 C 218.804688 206.171875 219.039062 206.046875 219.261719 205.898438 C 219.484375 205.75 219.6875 205.582031 219.878906 205.390625 C 220.066406 205.203125 220.238281 204.996094 220.386719 204.773438 C 220.535156 204.550781 220.660156 204.316406 220.761719 204.066406 C 220.863281 203.820312 220.941406 203.566406 220.996094 203.304688 C 221.046875 203.039062 221.074219 202.773438 221.074219 202.507812 C 221.074219 202.238281 221.046875 201.972656 220.996094 201.710938 C 220.941406 201.449219 220.863281 201.195312 220.761719 200.945312 C 220.660156 200.699219 220.535156 200.464844 220.386719 200.242188 C 220.238281 200.019531 220.066406 199.8125 219.878906 199.625 C 219.6875 199.433594 219.484375 199.265625 219.261719 199.117188 C 219.039062 198.96875 218.804688 198.84375 218.554688 198.738281 C 218.308594 198.636719 218.054688 198.558594 217.789062 198.507812 C 217.527344 198.457031 217.261719 198.429688 216.996094 198.429688 Z M 216.996094 205.679688 L 214.84375 205.679688 C 214.699219 205.679688 214.558594 205.644531 214.429688 205.578125 C 214.296875 205.507812 214.191406 205.414062 214.105469 205.296875 C 214.019531 205.175781 213.96875 205.042969 213.949219 204.898438 C 213.929688 204.75 213.941406 204.609375 213.992188 204.46875 C 214.480469 203.101562 214.726562 201.695312 214.730469 200.242188 C 214.730469 199.992188 214.816406 199.777344 214.996094 199.601562 C 215.171875 199.425781 215.386719 199.335938 215.636719 199.335938 L 216.996094 199.335938 C 217.414062 199.335938 217.820312 199.417969 218.207031 199.578125 C 218.597656 199.738281 218.941406 199.96875 219.238281 200.265625 C 219.535156 200.5625 219.765625 200.90625 219.925781 201.292969 C 220.085938 201.683594 220.167969 202.085938 220.167969 202.507812 C 220.167969 202.929688 220.085938 203.332031 219.925781 203.722656 C 219.765625 204.109375 219.535156 204.453125 219.238281 204.75 C 218.941406 205.046875 218.597656 205.277344 218.207031 205.4375 C 217.820312 205.597656 217.414062 205.679688 216.996094 205.679688 Z M 216.996094 205.679688 " fill-opacity="1" fill-rule="nonzero"/></g><path fill="#3c3b3c" d="M 182.550781 210.082031 C 183.050781 210.042969 183.503906 209.871094 183.910156 209.566406 C 184.332031 209.289062 184.648438 208.917969 184.859375 208.460938 C 185.210938 207.761719 185.710938 207.191406 186.363281 206.757812 C 187 206.296875 187.707031 206.019531 188.484375 205.921875 C 188.644531 205.902344 188.800781 205.871094 188.957031 205.832031 C 188.46875 205.398438 187.898438 205.128906 187.253906 205.027344 C 186.605469 204.929688 185.960938 204.960938 185.324219 205.117188 C 184.6875 205.273438 184.101562 205.546875 183.574219 205.933594 C 182.953125 206.367188 182.445312 206.90625 182.050781 207.554688 C 182.085938 207.835938 182.105469 208.117188 182.105469 208.398438 C 182.105469 209.019531 182.027344 209.628906 181.871094 210.226562 C 182.113281 210.164062 182.339844 210.121094 182.550781 210.082031 Z M 182.550781 210.082031 " fill-opacity="1" fill-rule="nonzero"/><path fill="#3c3b3c" d="M 188.765625 207.71875 C 188.269531 207.78125 187.816406 207.957031 187.40625 208.242188 C 186.996094 208.53125 186.675781 208.894531 186.445312 209.339844 C 186.09375 210.042969 185.59375 210.613281 184.941406 211.054688 C 184.308594 211.515625 183.601562 211.789062 182.820312 211.878906 C 182.660156 211.90625 182.503906 211.933594 182.351562 211.96875 C 182.835938 212.40625 183.398438 212.675781 184.042969 212.785156 C 184.664062 212.859375 185.273438 212.828125 185.882812 212.691406 C 186.488281 212.550781 187.054688 212.3125 187.574219 211.972656 C 188.097656 211.636719 188.546875 211.21875 188.921875 210.722656 C 189.300781 210.226562 189.578125 209.679688 189.761719 209.085938 C 189.914062 208.546875 189.9375 208.003906 189.835938 207.457031 C 189.488281 207.582031 189.132812 207.667969 188.765625 207.71875 Z M 188.765625 207.71875 " fill-opacity="1" fill-rule="nonzero"/><g clip-path="url(#3b50cec6c8)"><path fill="#3c3b3c" d="M 128.957031 164.453125 C 128.683594 197.554688 128.136719 198.101562 95.035156 198.375 C 128.136719 198.648438 128.683594 199.195312 128.957031 232.296875 C 129.230469 199.195312 129.777344 198.648438 162.882812 198.375 C 129.777344 198.101562 129.230469 197.554688 128.957031 164.453125 " fill-opacity="1" fill-rule="nonzero"/></g><g clip-path="url(#cd22800124)"><path fill="#3c3b3c" d="M 163.929688 149.703125 C 163.8125 163.574219 163.585938 163.804688 149.710938 163.917969 C 163.585938 164.03125 163.8125 164.261719 163.929688 178.132812 C 164.042969 164.261719 164.273438 164.03125 178.144531 163.917969 C 164.273438 163.804688 164.042969 163.574219 163.929688 149.703125 " fill-opacity="1" fill-rule="nonzero"/></g><g clip-path="url(#fd9511c3de)"><g clip-path="url(#f7bfca2887)"><path fill="#3c3b3c" d="M 179.171875 173.453125 L 200.242188 173.453125 L 200.242188 194.523438 L 179.171875 194.523438 Z M 179.171875 173.453125 " fill-opacity="1" fill-rule="nonzero"/></g></g><g clip-path="url(#08a5d6ebf6)"><g clip-path="url(#3151316f69)"><g clip-path="url(#8bd93b97ec)"><path fill="#ddb867" d="M 194.964844 178.890625 C 195.082031 178.992188 195.191406 179.101562 195.300781 179.210938 C 193.066406 177.539062 189.890625 177.84375 188.019531 179.972656 C 186.054688 182.214844 186.277344 185.621094 188.515625 187.585938 C 190.753906 189.550781 194.164062 189.328125 196.128906 187.089844 C 196.273438 186.921875 196.410156 186.75 196.53125 186.570312 C 196.28125 187.089844 195.957031 187.582031 195.558594 188.039062 C 193.199219 190.726562 189.101562 190.996094 186.414062 188.632812 C 183.722656 186.273438 183.457031 182.179688 185.816406 179.488281 C 188.175781 176.796875 192.273438 176.53125 194.964844 178.890625 " fill-opacity="1" fill-rule="evenodd"/></g></g></g><g clip-path="url(#ba96494dfc)"><g clip-path="url(#6c1936caa7)"><g clip-path="url(#bede9e23c7)"><g clip-path="url(#c79f3b0ad4)"><g clip-path="url(#254df2b8e5)"><path fill="#ffffff" d="M 185.9375 178.0625 C 187.46875 183.082031 187.414062 183.1875 182.417969 184.800781 C 187.4375 183.273438 187.546875 183.328125 189.160156 188.320312 C 187.628906 183.300781 187.6875 183.195312 192.679688 181.582031 C 187.660156 183.113281 187.550781 183.054688 185.9375 178.0625 " fill-opacity="1" fill-rule="nonzero"/></g></g></g></g></g><g clip-path="url(#bcca53be1c)"><g clip-path="url(#fddd63e321)"><g clip-path="url(#5f69c7a5a0)"><path fill="#ffffff" d="M 190.527344 174.171875 C 191.167969 176.273438 191.144531 176.320312 189.050781 176.996094 C 191.15625 176.355469 191.199219 176.378906 191.875 178.472656 C 191.234375 176.367188 191.257812 176.324219 193.351562 175.648438 C 191.25 176.289062 191.203125 176.265625 190.527344 174.171875 " fill-opacity="1" fill-rule="nonzero"/></g></g></g><g clip-path="url(#3d8326a08b)"><g clip-path="url(#51803d5947)"><g clip-path="url(#2e8d786bf0)"><path fill="#ffffff" d="M 189.292969 180.300781 C 189.433594 180.257812 189.511719 180.109375 189.46875 179.96875 C 189.421875 179.828125 189.273438 179.75 189.132812 179.796875 C 188.996094 179.839844 188.917969 179.988281 188.960938 180.128906 C 189.003906 180.269531 189.152344 180.347656 189.292969 180.300781 " fill-opacity="1" fill-rule="nonzero"/></g></g></g><g clip-path="url(#6038068ad3)"><g clip-path="url(#f3a19df955)"><g clip-path="url(#e64bc2ee52)"><path fill="#ffffff" d="M 185.941406 187.644531 C 185.730469 187.710938 185.613281 187.9375 185.679688 188.144531 C 185.746094 188.355469 185.96875 188.472656 186.179688 188.40625 C 186.386719 188.339844 186.503906 188.117188 186.4375 187.90625 C 186.375 187.699219 186.148438 187.582031 185.941406 187.644531 " fill-opacity="1" fill-rule="nonzero"/></g></g></g><g fill="#3c3b3c" fill-opacity="1"><g transform="translate(134.117868, 151.860538)"><g><path d="M 4.65625 -11.421875 L 9.859375 -15.34375 C 10.953125 -16.164062 11.984375 -16.601562 12.953125 -16.65625 C 13.929688 -16.71875 14.726562 -16.335938 15.34375 -15.515625 C 15.945312 -14.710938 16.085938 -13.847656 15.765625 -12.921875 C 15.453125 -12.003906 14.75 -11.132812 13.65625 -10.3125 L 5.234375 -3.953125 C 2.597656 -1.960938 0.285156 -2.285156 -1.703125 -4.921875 L -13.484375 -20.515625 C -15.472656 -23.148438 -15.269531 -25.375 -12.875 -27.1875 C -10.488281 -28.988281 -8.300781 -28.570312 -6.3125 -25.9375 Z M 4.65625 -11.421875 "/></g></g></g><g fill="#3c3b3c" fill-opacity="1"><g transform="translate(155.177732, 136.096742)"><g><path d="M 14.28125 -2.828125 C 12.007812 -2.296875 9.847656 -2.207031 7.796875 -2.5625 C 5.753906 -2.925781 3.957031 -3.867188 2.40625 -5.390625 C 0.863281 -6.910156 -0.25 -9.144531 -0.9375 -12.09375 L -3.734375 -24.0625 C -4.484375 -27.269531 -3.40625 -29.210938 -0.5 -29.890625 C 2.425781 -30.578125 4.265625 -29.316406 5.015625 -26.109375 L 7.703125 -14.625 C 8.171875 -12.632812 8.835938 -11.125 9.703125 -10.09375 C 10.578125 -9.0625 11.625 -8.6875 12.84375 -8.96875 C 14.070312 -9.257812 14.84375 -10.054688 15.15625 -11.359375 C 15.46875 -12.671875 15.390625 -14.320312 14.921875 -16.3125 L 12.234375 -27.796875 C 11.484375 -31.003906 12.570312 -32.953125 15.5 -33.640625 C 18.40625 -34.316406 20.234375 -33.050781 20.984375 -29.84375 L 23.78125 -17.875 C 24.46875 -14.925781 24.46875 -12.429688 23.78125 -10.390625 C 23.09375 -8.347656 21.910156 -6.710938 20.234375 -5.484375 C 18.554688 -4.253906 16.570312 -3.367188 14.28125 -2.828125 Z M 14.28125 -2.828125 "/></g></g></g><g fill="#3c3b3c" fill-opacity="1"><g transform="translate(186.836706, 129.506344)"><g><path d="M 5.640625 1.28125 C 3.078125 0.695312 2.160156 -1.203125 2.890625 -4.421875 L 7.0625 -22.8125 C 7.414062 -24.375 8.269531 -25.515625 9.625 -26.234375 C 10.988281 -26.960938 12.453125 -27.148438 14.015625 -26.796875 L 14.21875 -26.734375 C 15.6875 -26.410156 16.867188 -25.722656 17.765625 -24.671875 C 18.671875 -23.628906 19.207031 -22.351562 19.375 -20.84375 L 21.03125 -8.0625 L 23.640625 -19.53125 C 24.367188 -22.75 26.050781 -24.054688 28.6875 -23.453125 C 29.875 -23.191406 30.726562 -22.566406 31.25 -21.578125 C 31.769531 -20.597656 31.851562 -19.320312 31.5 -17.75 L 27.21875 1.09375 C 26.863281 2.664062 26.109375 3.753906 24.953125 4.359375 C 23.796875 4.960938 22.4375 5.085938 20.875 4.734375 L 20.828125 4.71875 C 19.378906 4.394531 18.203125 3.75 17.296875 2.78125 C 16.398438 1.8125 15.828125 0.570312 15.578125 -0.9375 L 13.328125 -14.890625 L 10.5625 -2.6875 C 9.832031 0.53125 8.191406 1.851562 5.640625 1.28125 Z M 5.640625 1.28125 "/></g></g></g><g fill="#3c3b3c" fill-opacity="1"><g transform="translate(217.810804, 137.386711)"><g><path d="M 3.421875 3.28125 C 2.453125 2.519531 1.890625 1.640625 1.734375 0.640625 C 1.585938 -0.359375 1.894531 -1.335938 2.65625 -2.296875 C 2.8125 -2.492188 2.984375 -2.679688 3.171875 -2.859375 C 3.359375 -3.046875 3.5625 -3.21875 3.78125 -3.375 L 20.75 -14.78125 C 22 -15.632812 23.28125 -16.09375 24.59375 -16.15625 C 25.90625 -16.21875 27.097656 -15.820312 28.171875 -14.96875 L 29.953125 -13.5625 C 31.023438 -12.71875 31.679688 -11.648438 31.921875 -10.359375 C 32.160156 -9.066406 32.015625 -7.707031 31.484375 -6.28125 L 24.296875 12.84375 C 24.191406 13.09375 24.070312 13.328125 23.9375 13.546875 C 23.800781 13.773438 23.65625 13.988281 23.5 14.1875 C 22.738281 15.144531 21.851562 15.664062 20.84375 15.75 C 19.84375 15.832031 18.859375 15.492188 17.890625 14.734375 C 16.722656 13.804688 16.09375 12.832031 16 11.8125 C 15.90625 10.789062 16.171875 9.585938 16.796875 8.203125 L 17.59375 6.390625 L 11.59375 1.65625 L 10.015625 2.84375 C 8.804688 3.769531 7.695312 4.304688 6.6875 4.453125 C 5.6875 4.609375 4.597656 4.21875 3.421875 3.28125 Z M 16.78125 -2.296875 L 20.21875 0.4375 L 23.265625 -6.453125 C 23.367188 -6.671875 23.472656 -6.890625 23.578125 -7.109375 C 23.691406 -7.335938 23.796875 -7.546875 23.890625 -7.734375 C 23.742188 -7.585938 23.570312 -7.4375 23.375 -7.28125 C 23.175781 -7.125 22.984375 -6.976562 22.796875 -6.84375 Z M 16.78125 -2.296875 "/></g></g></g></svg>